<svg height="512pt" viewBox="-62 0 512 512" width="512pt" xmlns="http://www.w3.org/2000/svg"><path d="m357.660156 512h-326.441406c-17.214844 0-31.21875-14.003906-31.21875-31.21875v-449.5625c0-17.214844 14.003906-31.21875 31.21875-31.21875h326.441406c17.214844 0 31.222656 14.003906 31.222656 31.21875v449.5625c0 17.214844-14.007812 31.21875-31.222656 31.21875zm-326.441406-492c-6.1875 0-11.21875 5.03125-11.21875 11.21875v449.5625c0 6.183594 5.03125 11.21875 11.21875 11.21875h326.441406c6.1875 0 11.222656-5.03125 11.222656-11.21875v-449.5625c0-6.1875-5.035156-11.21875-11.222656-11.21875zm0 0"/><path d="m273.859375 233.839844c-.648437 0-1.308594-.0625-1.949219-.191406-.640625-.128907-1.269531-.316407-1.871094-.566407-.609374-.25-1.1875-.5625-1.726562-.921875-.550781-.371094-1.0625-.789062-1.523438-1.25-.457031-.460937-.878906-.96875-1.238281-1.519531-.359375-.539063-.667969-1.121094-.917969-1.71875-.25-.613281-.441406-1.242187-.570312-1.882813-.132812-.640624-.203125-1.300781-.203125-1.949218 0-.648438.070313-1.3125.203125-1.949219.128906-.640625.320312-1.269531.570312-1.871094.25-.609375.558594-1.1875.917969-1.730469.359375-.550781.78125-1.058593 1.238281-1.519531.460938-.460937.972657-.878906 1.523438-1.238281.539062-.359375 1.117188-.671875 1.726562-.921875.601563-.25 1.230469-.449219 1.871094-.570313 1.289063-.257812 2.609375-.257812 3.902344 0 .636719.121094 1.269531.320313 1.867188.570313.609374.25 1.191406.5625 1.730468.921875.550782.359375 1.0625.777344 1.519532 1.238281.460937.460938.882812.972657 1.242187 1.519531.359375.539063.667969 1.121094.917969 1.730469.25.601563.449218 1.230469.582031 1.871094.117187.640625.1875 1.300781.1875 1.949219 0 .648437-.070313 1.308594-.1875 1.949218-.132813.640626-.332031 1.269532-.582031 1.882813-.25.597656-.558594 1.179687-.917969 1.71875-.359375.550781-.78125 1.058594-1.242187 1.519531-.457032.460938-.96875.878906-1.519532 1.25-.539062.359375-1.121094.671875-1.730468.921875-.597657.25-1.230469.4375-1.867188.566407-.640625.128906-1.300781.191406-1.953125.191406zm0 0"/><path d="m173.871094 310.5625c-.855469 0-1.730469-.113281-2.597656-.347656-39.007813-10.472656-66.25-45.988282-66.25-86.375 0-49.308594 40.113281-89.421875 89.417968-89.421875 35.691406 0 67.925782 21.210937 82.117188 54.03125 2.195312 5.070312-.140625 10.953125-5.207032 13.148437-5.070312 2.1875-10.957031-.140625-13.148437-5.210937-11.027344-25.492188-36.054687-41.96875-63.761719-41.96875-38.277344 0-69.417968 31.144531-69.417968 69.421875 0 31.355468 21.148437 58.929687 51.4375 67.058594 5.332031 1.433593 8.496093 6.917968 7.0625 12.253906-1.199219 4.464844-5.238282 7.410156-9.652344 7.410156zm0 0"/><path d="m194.441406 274.070312c-27.695312 0-50.230468-22.535156-50.230468-50.230468 0-27.695313 22.535156-50.230469 50.230468-50.230469 27.695313 0 50.230469 22.535156 50.230469 50.230469 0 27.695312-22.535156 50.230468-50.230469 50.230468zm0-80.460937c-16.667968 0-30.230468 13.5625-30.230468 30.230469 0 16.667968 13.5625 30.230468 30.230468 30.230468 16.667969 0 30.230469-13.5625 30.230469-30.230468 0-16.667969-13.5625-30.230469-30.230469-30.230469zm0 0"/><path d="m338.882812 40h-288.882812c-5.523438 0-10 4.476562-10 10v412c0 5.523438 4.476562 10 10 10h288.882812c5.519532 0 10-4.476562 10-10v-412c0-5.523438-4.480468-10-10-10zm-278.882812 20h268.882812v287.472656l-20.421874 15.480469-39.050782-33.605469c33.894532-24.125 54.449219-63.390625 54.449219-105.507812 0-71.363282-58.058594-129.417969-129.417969-129.417969-71.363281 0-129.421875 58.054687-129.421875 129.417969 0 71.363281 58.058594 129.421875 129.421875 129.421875 10.78125 0 21.433594-1.320313 31.773438-3.933594l23.015625 59.410156-54.78125 41.769531-134.449219-103.007812zm209.367188 345.34375-27.820313-71.808594c-.007813-.011718-.011719-.023437-.015625-.035156l-1.023438-2.640625 5.460938 4.699219c.109375.097656.222656.195312.339844.289062l54.746094 47.121094c4.699218 4.042969 7.222656 9.914062 6.925781 16.109375-.296875 6.191406-3.371094 11.796875-8.4375 15.375-5.0625 3.574219-11.371094 4.605469-17.308594 2.808594-5.9375-1.789063-10.625-6.136719-12.867187-11.917969zm-46.09375-115.707031c-3.476563-2.992188-8.542969-3.234375-12.292969-.589844-3.746094 2.648437-5.210938 7.503906-3.554688 11.78125l11.5 29.683594c-7.988281 1.828125-16.1875 2.75-24.484375 2.75-60.335937 0-109.421875-49.085938-109.421875-109.421875 0-60.332032 49.085938-109.417969 109.421875-109.417969 60.335938 0 109.417969 49.085937 109.417969 109.417969 0 37.277344-19.046875 71.917968-50.148437 91.996094zm-163.273438 83.058593 103.511719 79.304688h-103.511719zm165.480469 79.304688 33.9375-25.878906c4.640625 4.746094 10.453125 8.300781 17.035156 10.289062 3.835937 1.15625 7.75 1.726563 11.632813 1.726563 8.136718 0 16.136718-2.503907 22.996093-7.347657 10.132813-7.15625 16.285157-18.367187 16.878907-30.757812.382812-8.042969-1.609376-15.816406-5.632813-22.496094l6.554687-4.96875v79.433594zm0 0"/></svg>