<svg height="512pt" viewBox="0 -56 512 512" width="512pt" xmlns="http://www.w3.org/2000/svg"><path d="m472 400h-432c-22.054688 0-40-17.945312-40-40v-320c0-22.054688 17.945312-40 40-40h432c22.054688 0 40 17.945312 40 40v320c0 22.054688-17.945312 40-40 40zm-432-380c-11.027344 0-20 8.972656-20 20v320c0 11.027344 8.972656 20 20 20h432c11.027344 0 20-8.972656 20-20v-320c0-11.027344-8.972656-20-20-20zm0 0"/><path d="m343 340h-172c-38.597656 0-70-31.402344-70-70v-140c0-38.597656 31.402344-70 70-70h172c38.597656 0 70 31.402344 70 70v140c0 38.597656-31.402344 70-70 70zm-172-260c-27.570312 0-50 22.429688-50 50v140c0 27.570312 22.429688 50 50 50h172c27.570312 0 50-22.429688 50-50v-140c0-27.570312-22.429688-50-50-50zm0 0"/><path d="m215 210h-50c-5.523438 0-10-4.476562-10-10v-55c0-19.300781 15.699219-35 35-35s35 15.699219 35 35v55c0 5.523438-4.476562 10-10 10zm-40-20h30v-45c0-8.269531-6.730469-15-15-15s-15 6.730469-15 15zm0 0"/><path d="m345 210h-50c-5.523438 0-10-4.476562-10-10v-55c0-19.300781 15.699219-35 35-35s35 15.699219 35 35v55c0 5.523438-4.476562 10-10 10zm-40-20h30v-45c0-8.269531-6.730469-15-15-15s-15 6.730469-15 15zm0 0"/><path d="m256 300c-19.300781 0-35-15.699219-35-35v-15c0-5.523438 4.476562-10 10-10h50c5.523438 0 10 4.476562 10 10v15c0 19.300781-15.699219 35-35 35zm-15-40v5c0 8.269531 6.730469 15 15 15s15-6.730469 15-15v-5zm0 0"/><path d="m64 230c-5.523438 0-10-4.476562-10-10v-80c0-5.523438 4.476562-10 10-10s10 4.476562 10 10v80c0 5.523438-4.476562 10-10 10zm0 0"/><path d="m64.019531 270c-5.523437 0-10.003906-4.476562-10.003906-10s4.472656-10 9.996094-10h.007812c5.523438 0 10 4.476562 10 10s-4.476562 10-10 10zm0 0"/></svg>